<?xml version="1.0" encoding="utf-8" standalone="no"?>
<!DOCTYPE svg PUBLIC "-//W3C//DTD SVG 1.1//EN"
  "http://www.w3.org/Graphics/SVG/1.1/DTD/svg11.dtd">
<!-- Created with matplotlib (https://matplotlib.org/) -->
<svg height="252.018125pt" version="1.1" viewBox="0 0 381.965625 252.018125" width="381.965625pt" xmlns="http://www.w3.org/2000/svg" xmlns:xlink="http://www.w3.org/1999/xlink">
 <defs>
  <style type="text/css">
*{stroke-linecap:butt;stroke-linejoin:round;}
  </style>
 </defs>
 <g id="figure_1">
  <g id="patch_1">
   <path d="M 0 252.018125 
L 381.965625 252.018125 
L 381.965625 0 
L 0 0 
z
"/>
  </g>
  <g id="axes_1">
   <g id="patch_2">
    <path d="M 36.465625 228.14 
L 371.265625 228.14 
L 371.265625 10.7 
L 36.465625 10.7 
z
"/>
   </g>
   <g id="matplotlib.axis_1">
    <g id="xtick_1">
     <g id="line2d_1">
      <defs>
       <path d="M 0 0 
L 0 3.5 
" id="m22f9f8ce76" style="stroke:#ffffff;stroke-width:0.8;"/>
      </defs>
      <g>
       <use style="fill:#ffffff;stroke:#ffffff;stroke-width:0.8;" x="82.181165" xlink:href="#m22f9f8ce76" y="228.14"/>
      </g>
     </g>
     <g id="text_1">
      <!-- −200 -->
      <defs>
       <path d="M 10.59375 35.5 
L 73.1875 35.5 
L 73.1875 27.203125 
L 10.59375 27.203125 
z
" id="DejaVuSans-8722"/>
       <path d="M 19.1875 8.296875 
L 53.609375 8.296875 
L 53.609375 0 
L 7.328125 0 
L 7.328125 8.296875 
Q 12.9375 14.109375 22.625 23.890625 
Q 32.328125 33.6875 34.8125 36.53125 
Q 39.546875 41.84375 41.421875 45.53125 
Q 43.3125 49.21875 43.3125 52.78125 
Q 43.3125 58.59375 39.234375 62.25 
Q 35.15625 65.921875 28.609375 65.921875 
Q 23.96875 65.921875 18.8125 64.3125 
Q 13.671875 62.703125 7.8125 59.421875 
L 7.8125 69.390625 
Q 13.765625 71.78125 18.9375 73 
Q 24.125 74.21875 28.421875 74.21875 
Q 39.75 74.21875 46.484375 68.546875 
Q 53.21875 62.890625 53.21875 53.421875 
Q 53.21875 48.921875 51.53125 44.890625 
Q 49.859375 40.875 45.40625 35.40625 
Q 44.1875 33.984375 37.640625 27.21875 
Q 31.109375 20.453125 19.1875 8.296875 
z
" id="DejaVuSans-50"/>
       <path d="M 31.78125 66.40625 
Q 24.171875 66.40625 20.328125 58.90625 
Q 16.5 51.421875 16.5 36.375 
Q 16.5 21.390625 20.328125 13.890625 
Q 24.171875 6.390625 31.78125 6.390625 
Q 39.453125 6.390625 43.28125 13.890625 
Q 47.125 21.390625 47.125 36.375 
Q 47.125 51.421875 43.28125 58.90625 
Q 39.453125 66.40625 31.78125 66.40625 
z
M 31.78125 74.21875 
Q 44.046875 74.21875 50.515625 64.515625 
Q 56.984375 54.828125 56.984375 36.375 
Q 56.984375 17.96875 50.515625 8.265625 
Q 44.046875 -1.421875 31.78125 -1.421875 
Q 19.53125 -1.421875 13.0625 8.265625 
Q 6.59375 17.96875 6.59375 36.375 
Q 6.59375 54.828125 13.0625 64.515625 
Q 19.53125 74.21875 31.78125 74.21875 
z
" id="DejaVuSans-48"/>
      </defs>
      <g style="fill:#ffffff;" transform="translate(68.447571 242.738437)scale(0.1 -0.1)">
       <use xlink:href="#DejaVuSans-8722"/>
       <use x="83.789062" xlink:href="#DejaVuSans-50"/>
       <use x="147.412109" xlink:href="#DejaVuSans-48"/>
       <use x="211.035156" xlink:href="#DejaVuSans-48"/>
      </g>
     </g>
    </g>
    <g id="xtick_2">
     <g id="line2d_2">
      <g>
       <use style="fill:#ffffff;stroke:#ffffff;stroke-width:0.8;" x="143.175882" xlink:href="#m22f9f8ce76" y="228.14"/>
      </g>
     </g>
     <g id="text_2">
      <!-- −100 -->
      <defs>
       <path d="M 12.40625 8.296875 
L 28.515625 8.296875 
L 28.515625 63.921875 
L 10.984375 60.40625 
L 10.984375 69.390625 
L 28.421875 72.90625 
L 38.28125 72.90625 
L 38.28125 8.296875 
L 54.390625 8.296875 
L 54.390625 0 
L 12.40625 0 
z
" id="DejaVuSans-49"/>
      </defs>
      <g style="fill:#ffffff;" transform="translate(129.442288 242.738437)scale(0.1 -0.1)">
       <use xlink:href="#DejaVuSans-8722"/>
       <use x="83.789062" xlink:href="#DejaVuSans-49"/>
       <use x="147.412109" xlink:href="#DejaVuSans-48"/>
       <use x="211.035156" xlink:href="#DejaVuSans-48"/>
      </g>
     </g>
    </g>
    <g id="xtick_3">
     <g id="line2d_3">
      <g>
       <use style="fill:#ffffff;stroke:#ffffff;stroke-width:0.8;" x="204.170599" xlink:href="#m22f9f8ce76" y="228.14"/>
      </g>
     </g>
     <g id="text_3">
      <!-- 0 -->
      <g style="fill:#ffffff;" transform="translate(200.989349 242.738437)scale(0.1 -0.1)">
       <use xlink:href="#DejaVuSans-48"/>
      </g>
     </g>
    </g>
    <g id="xtick_4">
     <g id="line2d_4">
      <g>
       <use style="fill:#ffffff;stroke:#ffffff;stroke-width:0.8;" x="265.165315" xlink:href="#m22f9f8ce76" y="228.14"/>
      </g>
     </g>
     <g id="text_4">
      <!-- 100 -->
      <g style="fill:#ffffff;" transform="translate(255.621565 242.738437)scale(0.1 -0.1)">
       <use xlink:href="#DejaVuSans-49"/>
       <use x="63.623047" xlink:href="#DejaVuSans-48"/>
       <use x="127.246094" xlink:href="#DejaVuSans-48"/>
      </g>
     </g>
    </g>
    <g id="xtick_5">
     <g id="line2d_5">
      <g>
       <use style="fill:#ffffff;stroke:#ffffff;stroke-width:0.8;" x="326.160032" xlink:href="#m22f9f8ce76" y="228.14"/>
      </g>
     </g>
     <g id="text_5">
      <!-- 200 -->
      <g style="fill:#ffffff;" transform="translate(316.616282 242.738437)scale(0.1 -0.1)">
       <use xlink:href="#DejaVuSans-50"/>
       <use x="63.623047" xlink:href="#DejaVuSans-48"/>
       <use x="127.246094" xlink:href="#DejaVuSans-48"/>
      </g>
     </g>
    </g>
   </g>
   <g id="matplotlib.axis_2">
    <g id="ytick_1">
     <g id="line2d_6">
      <defs>
       <path d="M 0 0 
L -3.5 0 
" id="m3e0d1f6682" style="stroke:#ffffff;stroke-width:0.8;"/>
      </defs>
      <g>
       <use style="fill:#ffffff;stroke:#ffffff;stroke-width:0.8;" x="36.465625" xlink:href="#m3e0d1f6682" y="218.256364"/>
      </g>
     </g>
     <g id="text_6">
      <!-- 0.00 -->
      <defs>
       <path d="M 10.6875 12.40625 
L 21 12.40625 
L 21 0 
L 10.6875 0 
z
" id="DejaVuSans-46"/>
      </defs>
      <g style="fill:#ffffff;" transform="translate(7.2 222.055582)scale(0.1 -0.1)">
       <use xlink:href="#DejaVuSans-48"/>
       <use x="63.623047" xlink:href="#DejaVuSans-46"/>
       <use x="95.410156" xlink:href="#DejaVuSans-48"/>
       <use x="159.033203" xlink:href="#DejaVuSans-48"/>
      </g>
     </g>
    </g>
    <g id="ytick_2">
     <g id="line2d_7">
      <g>
       <use style="fill:#ffffff;stroke:#ffffff;stroke-width:0.8;" x="36.465625" xlink:href="#m3e0d1f6682" y="183.175962"/>
      </g>
     </g>
     <g id="text_7">
      <!-- 0.01 -->
      <g style="fill:#ffffff;" transform="translate(7.2 186.975181)scale(0.1 -0.1)">
       <use xlink:href="#DejaVuSans-48"/>
       <use x="63.623047" xlink:href="#DejaVuSans-46"/>
       <use x="95.410156" xlink:href="#DejaVuSans-48"/>
       <use x="159.033203" xlink:href="#DejaVuSans-49"/>
      </g>
     </g>
    </g>
    <g id="ytick_3">
     <g id="line2d_8">
      <g>
       <use style="fill:#ffffff;stroke:#ffffff;stroke-width:0.8;" x="36.465625" xlink:href="#m3e0d1f6682" y="148.09556"/>
      </g>
     </g>
     <g id="text_8">
      <!-- 0.02 -->
      <g style="fill:#ffffff;" transform="translate(7.2 151.894779)scale(0.1 -0.1)">
       <use xlink:href="#DejaVuSans-48"/>
       <use x="63.623047" xlink:href="#DejaVuSans-46"/>
       <use x="95.410156" xlink:href="#DejaVuSans-48"/>
       <use x="159.033203" xlink:href="#DejaVuSans-50"/>
      </g>
     </g>
    </g>
    <g id="ytick_4">
     <g id="line2d_9">
      <g>
       <use style="fill:#ffffff;stroke:#ffffff;stroke-width:0.8;" x="36.465625" xlink:href="#m3e0d1f6682" y="113.015159"/>
      </g>
     </g>
     <g id="text_9">
      <!-- 0.03 -->
      <defs>
       <path d="M 40.578125 39.3125 
Q 47.65625 37.796875 51.625 33 
Q 55.609375 28.21875 55.609375 21.1875 
Q 55.609375 10.40625 48.1875 4.484375 
Q 40.765625 -1.421875 27.09375 -1.421875 
Q 22.515625 -1.421875 17.65625 -0.515625 
Q 12.796875 0.390625 7.625 2.203125 
L 7.625 11.71875 
Q 11.71875 9.328125 16.59375 8.109375 
Q 21.484375 6.890625 26.8125 6.890625 
Q 36.078125 6.890625 40.9375 10.546875 
Q 45.796875 14.203125 45.796875 21.1875 
Q 45.796875 27.640625 41.28125 31.265625 
Q 36.765625 34.90625 28.71875 34.90625 
L 20.21875 34.90625 
L 20.21875 43.015625 
L 29.109375 43.015625 
Q 36.375 43.015625 40.234375 45.921875 
Q 44.09375 48.828125 44.09375 54.296875 
Q 44.09375 59.90625 40.109375 62.90625 
Q 36.140625 65.921875 28.71875 65.921875 
Q 24.65625 65.921875 20.015625 65.03125 
Q 15.375 64.15625 9.8125 62.3125 
L 9.8125 71.09375 
Q 15.4375 72.65625 20.34375 73.4375 
Q 25.25 74.21875 29.59375 74.21875 
Q 40.828125 74.21875 47.359375 69.109375 
Q 53.90625 64.015625 53.90625 55.328125 
Q 53.90625 49.265625 50.4375 45.09375 
Q 46.96875 40.921875 40.578125 39.3125 
z
" id="DejaVuSans-51"/>
      </defs>
      <g style="fill:#ffffff;" transform="translate(7.2 116.814378)scale(0.1 -0.1)">
       <use xlink:href="#DejaVuSans-48"/>
       <use x="63.623047" xlink:href="#DejaVuSans-46"/>
       <use x="95.410156" xlink:href="#DejaVuSans-48"/>
       <use x="159.033203" xlink:href="#DejaVuSans-51"/>
      </g>
     </g>
    </g>
    <g id="ytick_5">
     <g id="line2d_10">
      <g>
       <use style="fill:#ffffff;stroke:#ffffff;stroke-width:0.8;" x="36.465625" xlink:href="#m3e0d1f6682" y="77.934757"/>
      </g>
     </g>
     <g id="text_10">
      <!-- 0.04 -->
      <defs>
       <path d="M 37.796875 64.3125 
L 12.890625 25.390625 
L 37.796875 25.390625 
z
M 35.203125 72.90625 
L 47.609375 72.90625 
L 47.609375 25.390625 
L 58.015625 25.390625 
L 58.015625 17.1875 
L 47.609375 17.1875 
L 47.609375 0 
L 37.796875 0 
L 37.796875 17.1875 
L 4.890625 17.1875 
L 4.890625 26.703125 
z
" id="DejaVuSans-52"/>
      </defs>
      <g style="fill:#ffffff;" transform="translate(7.2 81.733976)scale(0.1 -0.1)">
       <use xlink:href="#DejaVuSans-48"/>
       <use x="63.623047" xlink:href="#DejaVuSans-46"/>
       <use x="95.410156" xlink:href="#DejaVuSans-48"/>
       <use x="159.033203" xlink:href="#DejaVuSans-52"/>
      </g>
     </g>
    </g>
    <g id="ytick_6">
     <g id="line2d_11">
      <g>
       <use style="fill:#ffffff;stroke:#ffffff;stroke-width:0.8;" x="36.465625" xlink:href="#m3e0d1f6682" y="42.854356"/>
      </g>
     </g>
     <g id="text_11">
      <!-- 0.05 -->
      <defs>
       <path d="M 10.796875 72.90625 
L 49.515625 72.90625 
L 49.515625 64.59375 
L 19.828125 64.59375 
L 19.828125 46.734375 
Q 21.96875 47.46875 24.109375 47.828125 
Q 26.265625 48.1875 28.421875 48.1875 
Q 40.625 48.1875 47.75 41.5 
Q 54.890625 34.8125 54.890625 23.390625 
Q 54.890625 11.625 47.5625 5.09375 
Q 40.234375 -1.421875 26.90625 -1.421875 
Q 22.3125 -1.421875 17.546875 -0.640625 
Q 12.796875 0.140625 7.71875 1.703125 
L 7.71875 11.625 
Q 12.109375 9.234375 16.796875 8.0625 
Q 21.484375 6.890625 26.703125 6.890625 
Q 35.15625 6.890625 40.078125 11.328125 
Q 45.015625 15.765625 45.015625 23.390625 
Q 45.015625 31 40.078125 35.4375 
Q 35.15625 39.890625 26.703125 39.890625 
Q 22.75 39.890625 18.8125 39.015625 
Q 14.890625 38.140625 10.796875 36.28125 
z
" id="DejaVuSans-53"/>
      </defs>
      <g style="fill:#ffffff;" transform="translate(7.2 46.653574)scale(0.1 -0.1)">
       <use xlink:href="#DejaVuSans-48"/>
       <use x="63.623047" xlink:href="#DejaVuSans-46"/>
       <use x="95.410156" xlink:href="#DejaVuSans-48"/>
       <use x="159.033203" xlink:href="#DejaVuSans-53"/>
      </g>
     </g>
    </g>
   </g>
   <g id="line2d_12">
    <path clip-path="url(#p91c0985b40)" d="M 82.181165 218.256364 
L 170.623504 218.256364 
L 171.233452 218.128518 
L 171.843399 218.256364 
L 172.453346 218.036953 
L 173.063293 218.256364 
L 173.67324 217.887754 
L 174.283187 218.256364 
L 174.893135 217.650098 
L 175.503082 218.256364 
L 176.113029 217.28004 
L 176.722976 218.256364 
L 177.332923 216.716776 
L 177.94287 218.256364 
L 178.552818 215.878773 
L 179.162765 218.256364 
L 179.772712 214.660258 
L 180.382659 218.256364 
L 180.992606 212.928799 
L 181.602553 218.256364 
L 182.212501 210.524898 
L 182.822448 218.256364 
L 183.432395 207.264641 
L 184.042342 218.256364 
L 184.652289 202.946465 
L 185.262236 218.256364 
L 185.872184 197.362855 
L 186.482131 218.256364 
L 187.092078 190.317369 
L 187.702025 218.256364 
L 188.311972 181.646647 
L 188.921919 218.256364 
L 189.531867 171.246159 
L 190.141814 218.256364 
L 190.751761 159.097454 
L 191.361708 218.256364 
L 191.971655 145.293709 
L 192.581602 218.256364 
L 193.19155 130.059748 
L 193.801497 218.256364 
L 194.411444 113.762547 
L 195.021391 218.256364 
L 195.631338 96.908706 
L 196.241285 218.256364 
L 196.851233 80.126583 
L 197.46118 218.256364 
L 198.071127 64.132608 
L 198.681074 218.256364 
L 199.291021 49.683506 
L 199.900968 218.256364 
L 200.510916 37.518454 
L 201.120863 218.256364 
L 201.73081 28.297132 
L 202.340757 218.256364 
L 202.950704 22.540792 
L 203.560651 218.256364 
L 204.170599 20.583636 
L 204.780546 218.256364 
L 205.390493 22.540792 
L 206.00044 218.256364 
L 206.610387 28.297132 
L 207.220334 218.256364 
L 207.830282 37.518454 
L 208.440229 218.256364 
L 209.050176 49.683506 
L 209.660123 218.256364 
L 210.27007 64.132608 
L 210.880017 218.256364 
L 211.489965 80.126583 
L 212.099912 218.256364 
L 212.709859 96.908706 
L 213.319806 218.256364 
L 213.929753 113.762547 
L 214.5397 218.256364 
L 215.149648 130.059748 
L 215.759595 218.256364 
L 216.369542 145.293709 
L 216.979489 218.256364 
L 217.589436 159.097454 
L 218.199383 218.256364 
L 218.809331 171.246159 
L 219.419278 218.256364 
L 220.029225 181.646647 
L 220.639172 218.256364 
L 221.249119 190.317369 
L 221.859066 218.256364 
L 222.469014 197.362855 
L 223.078961 218.256364 
L 223.688908 202.946465 
L 224.298855 218.256364 
L 224.908802 207.264641 
L 225.518749 218.256364 
L 226.128697 210.524898 
L 226.738644 218.256364 
L 227.348591 212.928799 
L 227.958538 218.256364 
L 228.568485 214.660258 
L 229.178432 218.256364 
L 229.78838 215.878773 
L 230.398327 218.256364 
L 231.008274 216.716776 
L 231.618221 218.256364 
L 232.228168 217.28004 
L 232.838115 218.256364 
L 233.448063 217.650098 
L 234.05801 218.256364 
L 234.667957 217.887754 
L 235.277904 218.256364 
L 235.887851 218.036953 
L 236.497798 218.256364 
L 237.107746 218.128518 
L 237.717693 218.256364 
L 238.32764 218.183452 
L 238.937587 218.256364 
L 240.767429 218.234138 
L 243.817164 218.256364 
L 265.165315 218.256364 
L 326.160032 218.256364 
L 326.160032 218.256364 
" style="fill:none;stroke:#8dd3c7;stroke-linecap:square;stroke-opacity:0.85;stroke-width:1.5;"/>
   </g>
   <g id="line2d_13">
    <path clip-path="url(#p91c0985b40)" d="M 51.683807 218.256364 
L 110.238735 218.256364 
L 110.848682 218.133752 
L 111.458629 218.256364 
L 112.068576 217.373899 
L 112.678524 218.256364 
L 113.288471 213.330562 
L 113.898418 218.256364 
L 114.508365 197.4513 
L 115.118312 218.256364 
L 115.728259 154.19156 
L 116.338207 218.256364 
L 116.948154 82.949074 
L 117.558101 218.256364 
L 118.168048 43.629103 
L 118.777995 218.256364 
L 119.387942 114.754418 
L 119.99789 218.256364 
L 120.607837 208.734526 
L 121.217784 218.256364 
L 121.827731 163.043674 
L 122.437678 218.256364 
L 123.047625 133.693884 
L 123.657573 218.256364 
L 124.26752 208.143707 
L 124.877467 218.256364 
L 125.487414 161.498875 
L 126.097361 218.256364 
L 126.707308 179.110265 
L 127.317256 218.256364 
L 127.927203 195.291136 
L 128.53715 218.256364 
L 129.147097 168.378604 
L 129.757044 218.256364 
L 130.366991 205.207685 
L 130.976939 218.256364 
L 131.586886 171.532628 
L 132.196833 218.256364 
L 132.80678 205.972585 
L 133.416727 218.256364 
L 134.026674 178.366308 
L 134.636622 218.256364 
L 135.246569 202.657645 
L 135.856516 218.256364 
L 136.466463 188.506582 
L 137.07641 218.256364 
L 137.686357 194.605773 
L 138.296305 218.256364 
L 138.906252 201.498455 
L 139.516199 218.256364 
L 140.126146 186.576751 
L 140.736093 218.256364 
L 141.34604 207.637456 
L 141.955988 218.256364 
L 142.565935 191.404363 
L 143.175882 218.256364 
L 143.785829 197.88145 
L 144.395776 218.256364 
L 145.005723 205.85806 
L 145.615671 218.256364 
L 146.225618 192.036512 
L 146.835565 218.256364 
L 147.445512 202.192629 
L 148.055459 218.256364 
L 148.665406 205.350103 
L 149.275354 218.256364 
L 149.885301 194.953906 
L 150.495248 218.256364 
L 151.105195 201.748845 
L 151.715142 218.256364 
L 152.325089 206.920352 
L 152.935037 218.256364 
L 153.544984 199.021248 
L 154.154931 218.256364 
L 154.764878 199.318515 
L 155.374825 218.256364 
L 155.984772 206.558936 
L 156.59472 218.256364 
L 157.204667 204.949421 
L 157.814614 218.256364 
L 158.424561 199.831983 
L 159.034508 218.256364 
L 159.644455 202.088671 
L 160.254403 218.256364 
L 160.86435 206.775563 
L 161.474297 218.256364 
L 162.084244 205.875111 
L 162.694191 218.256364 
L 163.304138 202.281103 
L 163.914086 218.256364 
L 164.524033 202.28756 
L 165.13398 218.256364 
L 165.743927 205.44042 
L 166.353874 218.256364 
L 166.963821 207.138129 
L 167.573769 218.256364 
L 168.183716 205.807033 
L 168.793663 218.256364 
L 169.40361 203.867946 
L 170.013557 218.256364 
L 170.623504 203.734899 
L 171.233452 218.256364 
L 171.843399 205.268047 
L 172.453346 218.256364 
L 173.063293 206.764822 
L 173.67324 218.256364 
L 174.283187 207.059537 
L 174.893135 218.256364 
L 175.503082 206.330646 
L 176.113029 218.256364 
L 176.722976 205.473425 
L 177.332923 218.256364 
L 177.94287 205.174095 
L 178.552818 218.256364 
L 179.162765 205.520184 
L 179.772712 218.256364 
L 180.382659 206.179085 
L 180.992606 218.256364 
L 181.602553 206.762208 
L 182.212501 218.256364 
L 182.822448 207.060145 
L 183.432395 218.256364 
L 184.042342 207.073552 
L 184.652289 218.256364 
L 185.262236 206.922714 
L 185.872184 218.256364 
L 186.482131 206.742574 
L 187.092078 218.256364 
L 187.702025 206.621354 
L 188.311972 218.256364 
L 188.921919 206.588455 
L 189.531867 218.256364 
L 190.141814 206.631371 
L 190.751761 218.256364 
L 191.361708 206.719592 
L 191.971655 218.256364 
L 192.581602 206.822693 
L 193.19155 218.256364 
L 193.801497 206.919168 
L 194.411444 218.256364 
L 195.021391 206.997978 
L 195.631338 218.256364 
L 196.241285 207.056263 
L 196.851233 218.256364 
L 197.46118 207.096004 
L 198.071127 218.256364 
L 198.681074 207.121175 
L 199.291021 218.256364 
L 199.900968 207.135873 
L 200.510916 218.256364 
L 201.120863 207.14335 
L 201.73081 218.256364 
L 202.340757 207.145617 
L 202.950704 218.256364 
L 203.560651 207.14335 
L 204.170599 218.256364 
L 204.780546 207.135873 
L 205.390493 218.256364 
L 206.00044 207.121175 
L 206.610387 218.256364 
L 207.220334 207.096004 
L 207.830282 218.256364 
L 208.440229 207.056263 
L 209.050176 218.256364 
L 209.660123 206.997978 
L 210.27007 218.256364 
L 210.880017 206.919168 
L 211.489965 218.256364 
L 212.099912 206.822693 
L 212.709859 218.256364 
L 213.319806 206.719592 
L 213.929753 218.256364 
L 214.5397 206.631371 
L 215.149648 218.256364 
L 215.759595 206.588455 
L 216.369542 218.256364 
L 216.979489 206.621354 
L 217.589436 218.256364 
L 218.199383 206.742574 
L 218.809331 218.256364 
L 219.419278 206.922714 
L 220.029225 218.256364 
L 220.639172 207.073552 
L 221.249119 218.256364 
L 221.859066 207.060145 
L 222.469014 218.256364 
L 223.078961 206.762208 
L 223.688908 218.256364 
L 224.298855 206.179085 
L 224.908802 218.256364 
L 225.518749 205.520184 
L 226.128697 218.256364 
L 226.738644 205.174095 
L 227.348591 218.256364 
L 227.958538 205.473425 
L 228.568485 218.256364 
L 229.178432 206.330646 
L 229.78838 218.256364 
L 230.398327 207.059537 
L 231.008274 218.256364 
L 231.618221 206.764822 
L 232.228168 218.256364 
L 232.838115 205.268047 
L 233.448063 218.256364 
L 234.05801 203.734899 
L 234.667957 218.256364 
L 235.277904 203.867946 
L 235.887851 218.256364 
L 236.497798 205.807033 
L 237.107746 218.256364 
L 237.717693 207.138129 
L 238.32764 218.256364 
L 238.937587 205.44042 
L 239.547534 218.256364 
L 240.157481 202.28756 
L 240.767429 218.256364 
L 241.377376 202.281103 
L 241.987323 218.256364 
L 242.59727 205.875111 
L 243.207217 218.256364 
L 243.817164 206.775563 
L 244.427112 218.256364 
L 245.037059 202.088671 
L 245.647006 218.256364 
L 246.256953 199.831983 
L 246.8669 218.256364 
L 247.476847 204.949421 
L 248.086795 218.256364 
L 248.696742 206.558936 
L 249.306689 218.256364 
L 249.916636 199.318515 
L 250.526583 218.256364 
L 251.13653 199.021248 
L 251.746478 218.256364 
L 252.356425 206.920352 
L 252.966372 218.256364 
L 253.576319 201.748845 
L 254.186266 218.256364 
L 254.796213 194.953906 
L 255.406161 218.256364 
L 256.016108 205.350103 
L 256.626055 218.256364 
L 257.236002 202.192629 
L 257.845949 218.256364 
L 258.455896 192.036512 
L 259.065844 218.256364 
L 259.675791 205.85806 
L 260.285738 218.256364 
L 260.895685 197.88145 
L 261.505632 218.256364 
L 262.115579 191.404363 
L 262.725527 218.256364 
L 263.335474 207.637456 
L 263.945421 218.256364 
L 264.555368 186.576751 
L 265.165315 218.256364 
L 265.775262 201.498455 
L 266.38521 218.256364 
L 266.995157 194.605773 
L 267.605104 218.256364 
L 268.215051 188.506582 
L 268.824998 218.256364 
L 269.434945 202.657645 
L 270.044893 218.256364 
L 270.65484 178.366308 
L 271.264787 218.256364 
L 271.874734 205.972585 
L 272.484681 218.256364 
L 273.094628 171.532628 
L 273.704576 218.256364 
L 274.314523 205.207685 
L 274.92447 218.256364 
L 275.534417 168.378604 
L 276.144364 218.256364 
L 276.754311 195.291136 
L 277.364259 218.256364 
L 277.974206 179.110265 
L 278.584153 218.256364 
L 279.1941 161.498875 
L 279.804047 218.256364 
L 280.413994 208.143707 
L 281.023942 218.256364 
L 281.633889 133.693884 
L 282.243836 218.256364 
L 282.853783 163.043674 
L 283.46373 218.256364 
L 284.073677 208.734526 
L 284.683625 218.256364 
L 285.293572 114.754418 
L 285.903519 218.256364 
L 286.513466 43.629103 
L 287.123413 218.256364 
L 287.73336 82.949074 
L 288.343308 218.256364 
L 288.953255 154.19156 
L 289.563202 218.256364 
L 290.173149 197.4513 
L 290.783096 218.256364 
L 291.393043 213.330562 
L 292.002991 218.256364 
L 292.612938 217.373899 
L 293.222885 218.256364 
L 293.832832 218.133752 
L 294.442779 218.256364 
L 299.322357 218.256364 
L 356.047443 218.256364 
L 356.047443 218.256364 
" style="fill:none;stroke:#feffb3;stroke-linecap:square;stroke-opacity:0.85;stroke-width:1.5;"/>
   </g>
   <g id="patch_3">
    <path d="M 36.465625 228.14 
L 36.465625 10.7 
" style="fill:none;stroke:#ffffff;stroke-linecap:square;stroke-linejoin:miter;stroke-width:0.8;"/>
   </g>
   <g id="patch_4">
    <path d="M 371.265625 228.14 
L 371.265625 10.7 
" style="fill:none;stroke:#ffffff;stroke-linecap:square;stroke-linejoin:miter;stroke-width:0.8;"/>
   </g>
   <g id="patch_5">
    <path d="M 36.465625 228.14 
L 371.265625 228.14 
" style="fill:none;stroke:#ffffff;stroke-linecap:square;stroke-linejoin:miter;stroke-width:0.8;"/>
   </g>
   <g id="patch_6">
    <path d="M 36.465625 10.7 
L 371.265625 10.7 
" style="fill:none;stroke:#ffffff;stroke-linecap:square;stroke-linejoin:miter;stroke-width:0.8;"/>
   </g>
   <g id="legend_1">
    <g id="patch_7">
     <path d="M 216.225 48.05625 
L 364.265625 48.05625 
Q 366.265625 48.05625 366.265625 46.05625 
L 366.265625 17.7 
Q 366.265625 15.7 364.265625 15.7 
L 216.225 15.7 
Q 214.225 15.7 214.225 17.7 
L 214.225 46.05625 
Q 214.225 48.05625 216.225 48.05625 
z
" style="opacity:0.8;stroke:#cccccc;stroke-linejoin:miter;"/>
    </g>
    <g id="line2d_14">
     <path d="M 218.225 23.798437 
L 238.225 23.798437 
" style="fill:none;stroke:#8dd3c7;stroke-linecap:square;stroke-opacity:0.85;stroke-width:1.5;"/>
    </g>
    <g id="line2d_15"/>
    <g id="text_12">
     <!-- Classical Random Walk -->
     <defs>
      <path d="M 64.40625 67.28125 
L 64.40625 56.890625 
Q 59.421875 61.53125 53.78125 63.8125 
Q 48.140625 66.109375 41.796875 66.109375 
Q 29.296875 66.109375 22.65625 58.46875 
Q 16.015625 50.828125 16.015625 36.375 
Q 16.015625 21.96875 22.65625 14.328125 
Q 29.296875 6.6875 41.796875 6.6875 
Q 48.140625 6.6875 53.78125 8.984375 
Q 59.421875 11.28125 64.40625 15.921875 
L 64.40625 5.609375 
Q 59.234375 2.09375 53.4375 0.328125 
Q 47.65625 -1.421875 41.21875 -1.421875 
Q 24.65625 -1.421875 15.125 8.703125 
Q 5.609375 18.84375 5.609375 36.375 
Q 5.609375 53.953125 15.125 64.078125 
Q 24.65625 74.21875 41.21875 74.21875 
Q 47.75 74.21875 53.53125 72.484375 
Q 59.328125 70.75 64.40625 67.28125 
z
" id="DejaVuSans-67"/>
      <path d="M 9.421875 75.984375 
L 18.40625 75.984375 
L 18.40625 0 
L 9.421875 0 
z
" id="DejaVuSans-108"/>
      <path d="M 34.28125 27.484375 
Q 23.390625 27.484375 19.1875 25 
Q 14.984375 22.515625 14.984375 16.5 
Q 14.984375 11.71875 18.140625 8.90625 
Q 21.296875 6.109375 26.703125 6.109375 
Q 34.1875 6.109375 38.703125 11.40625 
Q 43.21875 16.703125 43.21875 25.484375 
L 43.21875 27.484375 
z
M 52.203125 31.203125 
L 52.203125 0 
L 43.21875 0 
L 43.21875 8.296875 
Q 40.140625 3.328125 35.546875 0.953125 
Q 30.953125 -1.421875 24.3125 -1.421875 
Q 15.921875 -1.421875 10.953125 3.296875 
Q 6 8.015625 6 15.921875 
Q 6 25.140625 12.171875 29.828125 
Q 18.359375 34.515625 30.609375 34.515625 
L 43.21875 34.515625 
L 43.21875 35.40625 
Q 43.21875 41.609375 39.140625 45 
Q 35.0625 48.390625 27.6875 48.390625 
Q 23 48.390625 18.546875 47.265625 
Q 14.109375 46.140625 10.015625 43.890625 
L 10.015625 52.203125 
Q 14.9375 54.109375 19.578125 55.046875 
Q 24.21875 56 28.609375 56 
Q 40.484375 56 46.34375 49.84375 
Q 52.203125 43.703125 52.203125 31.203125 
z
" id="DejaVuSans-97"/>
      <path d="M 44.28125 53.078125 
L 44.28125 44.578125 
Q 40.484375 46.53125 36.375 47.5 
Q 32.28125 48.484375 27.875 48.484375 
Q 21.1875 48.484375 17.84375 46.4375 
Q 14.5 44.390625 14.5 40.28125 
Q 14.5 37.15625 16.890625 35.375 
Q 19.28125 33.59375 26.515625 31.984375 
L 29.59375 31.296875 
Q 39.15625 29.25 43.1875 25.515625 
Q 47.21875 21.78125 47.21875 15.09375 
Q 47.21875 7.46875 41.1875 3.015625 
Q 35.15625 -1.421875 24.609375 -1.421875 
Q 20.21875 -1.421875 15.453125 -0.5625 
Q 10.6875 0.296875 5.421875 2 
L 5.421875 11.28125 
Q 10.40625 8.6875 15.234375 7.390625 
Q 20.0625 6.109375 24.8125 6.109375 
Q 31.15625 6.109375 34.5625 8.28125 
Q 37.984375 10.453125 37.984375 14.40625 
Q 37.984375 18.0625 35.515625 20.015625 
Q 33.0625 21.96875 24.703125 23.78125 
L 21.578125 24.515625 
Q 13.234375 26.265625 9.515625 29.90625 
Q 5.8125 33.546875 5.8125 39.890625 
Q 5.8125 47.609375 11.28125 51.796875 
Q 16.75 56 26.8125 56 
Q 31.78125 56 36.171875 55.265625 
Q 40.578125 54.546875 44.28125 53.078125 
z
" id="DejaVuSans-115"/>
      <path d="M 9.421875 54.6875 
L 18.40625 54.6875 
L 18.40625 0 
L 9.421875 0 
z
M 9.421875 75.984375 
L 18.40625 75.984375 
L 18.40625 64.59375 
L 9.421875 64.59375 
z
" id="DejaVuSans-105"/>
      <path d="M 48.78125 52.59375 
L 48.78125 44.1875 
Q 44.96875 46.296875 41.140625 47.34375 
Q 37.3125 48.390625 33.40625 48.390625 
Q 24.65625 48.390625 19.8125 42.84375 
Q 14.984375 37.3125 14.984375 27.296875 
Q 14.984375 17.28125 19.8125 11.734375 
Q 24.65625 6.203125 33.40625 6.203125 
Q 37.3125 6.203125 41.140625 7.25 
Q 44.96875 8.296875 48.78125 10.40625 
L 48.78125 2.09375 
Q 45.015625 0.34375 40.984375 -0.53125 
Q 36.96875 -1.421875 32.421875 -1.421875 
Q 20.0625 -1.421875 12.78125 6.34375 
Q 5.515625 14.109375 5.515625 27.296875 
Q 5.515625 40.671875 12.859375 48.328125 
Q 20.21875 56 33.015625 56 
Q 37.15625 56 41.109375 55.140625 
Q 45.0625 54.296875 48.78125 52.59375 
z
" id="DejaVuSans-99"/>
      <path id="DejaVuSans-32"/>
      <path d="M 44.390625 34.1875 
Q 47.5625 33.109375 50.5625 29.59375 
Q 53.5625 26.078125 56.59375 19.921875 
L 66.609375 0 
L 56 0 
L 46.6875 18.703125 
Q 43.0625 26.03125 39.671875 28.421875 
Q 36.28125 30.8125 30.421875 30.8125 
L 19.671875 30.8125 
L 19.671875 0 
L 9.8125 0 
L 9.8125 72.90625 
L 32.078125 72.90625 
Q 44.578125 72.90625 50.734375 67.671875 
Q 56.890625 62.453125 56.890625 51.90625 
Q 56.890625 45.015625 53.6875 40.46875 
Q 50.484375 35.9375 44.390625 34.1875 
z
M 19.671875 64.796875 
L 19.671875 38.921875 
L 32.078125 38.921875 
Q 39.203125 38.921875 42.84375 42.21875 
Q 46.484375 45.515625 46.484375 51.90625 
Q 46.484375 58.296875 42.84375 61.546875 
Q 39.203125 64.796875 32.078125 64.796875 
z
" id="DejaVuSans-82"/>
      <path d="M 54.890625 33.015625 
L 54.890625 0 
L 45.90625 0 
L 45.90625 32.71875 
Q 45.90625 40.484375 42.875 44.328125 
Q 39.84375 48.1875 33.796875 48.1875 
Q 26.515625 48.1875 22.3125 43.546875 
Q 18.109375 38.921875 18.109375 30.90625 
L 18.109375 0 
L 9.078125 0 
L 9.078125 54.6875 
L 18.109375 54.6875 
L 18.109375 46.1875 
Q 21.34375 51.125 25.703125 53.5625 
Q 30.078125 56 35.796875 56 
Q 45.21875 56 50.046875 50.171875 
Q 54.890625 44.34375 54.890625 33.015625 
z
" id="DejaVuSans-110"/>
      <path d="M 45.40625 46.390625 
L 45.40625 75.984375 
L 54.390625 75.984375 
L 54.390625 0 
L 45.40625 0 
L 45.40625 8.203125 
Q 42.578125 3.328125 38.25 0.953125 
Q 33.9375 -1.421875 27.875 -1.421875 
Q 17.96875 -1.421875 11.734375 6.484375 
Q 5.515625 14.40625 5.515625 27.296875 
Q 5.515625 40.1875 11.734375 48.09375 
Q 17.96875 56 27.875 56 
Q 33.9375 56 38.25 53.625 
Q 42.578125 51.265625 45.40625 46.390625 
z
M 14.796875 27.296875 
Q 14.796875 17.390625 18.875 11.75 
Q 22.953125 6.109375 30.078125 6.109375 
Q 37.203125 6.109375 41.296875 11.75 
Q 45.40625 17.390625 45.40625 27.296875 
Q 45.40625 37.203125 41.296875 42.84375 
Q 37.203125 48.484375 30.078125 48.484375 
Q 22.953125 48.484375 18.875 42.84375 
Q 14.796875 37.203125 14.796875 27.296875 
z
" id="DejaVuSans-100"/>
      <path d="M 30.609375 48.390625 
Q 23.390625 48.390625 19.1875 42.75 
Q 14.984375 37.109375 14.984375 27.296875 
Q 14.984375 17.484375 19.15625 11.84375 
Q 23.34375 6.203125 30.609375 6.203125 
Q 37.796875 6.203125 41.984375 11.859375 
Q 46.1875 17.53125 46.1875 27.296875 
Q 46.1875 37.015625 41.984375 42.703125 
Q 37.796875 48.390625 30.609375 48.390625 
z
M 30.609375 56 
Q 42.328125 56 49.015625 48.375 
Q 55.71875 40.765625 55.71875 27.296875 
Q 55.71875 13.875 49.015625 6.21875 
Q 42.328125 -1.421875 30.609375 -1.421875 
Q 18.84375 -1.421875 12.171875 6.21875 
Q 5.515625 13.875 5.515625 27.296875 
Q 5.515625 40.765625 12.171875 48.375 
Q 18.84375 56 30.609375 56 
z
" id="DejaVuSans-111"/>
      <path d="M 52 44.1875 
Q 55.375 50.25 60.0625 53.125 
Q 64.75 56 71.09375 56 
Q 79.640625 56 84.28125 50.015625 
Q 88.921875 44.046875 88.921875 33.015625 
L 88.921875 0 
L 79.890625 0 
L 79.890625 32.71875 
Q 79.890625 40.578125 77.09375 44.375 
Q 74.3125 48.1875 68.609375 48.1875 
Q 61.625 48.1875 57.5625 43.546875 
Q 53.515625 38.921875 53.515625 30.90625 
L 53.515625 0 
L 44.484375 0 
L 44.484375 32.71875 
Q 44.484375 40.625 41.703125 44.40625 
Q 38.921875 48.1875 33.109375 48.1875 
Q 26.21875 48.1875 22.15625 43.53125 
Q 18.109375 38.875 18.109375 30.90625 
L 18.109375 0 
L 9.078125 0 
L 9.078125 54.6875 
L 18.109375 54.6875 
L 18.109375 46.1875 
Q 21.1875 51.21875 25.484375 53.609375 
Q 29.78125 56 35.6875 56 
Q 41.65625 56 45.828125 52.96875 
Q 50 49.953125 52 44.1875 
z
" id="DejaVuSans-109"/>
      <path d="M 3.328125 72.90625 
L 13.28125 72.90625 
L 28.609375 11.28125 
L 43.890625 72.90625 
L 54.984375 72.90625 
L 70.3125 11.28125 
L 85.59375 72.90625 
L 95.609375 72.90625 
L 77.296875 0 
L 64.890625 0 
L 49.515625 63.28125 
L 33.984375 0 
L 21.578125 0 
z
" id="DejaVuSans-87"/>
      <path d="M 9.078125 75.984375 
L 18.109375 75.984375 
L 18.109375 31.109375 
L 44.921875 54.6875 
L 56.390625 54.6875 
L 27.390625 29.109375 
L 57.625 0 
L 45.90625 0 
L 18.109375 26.703125 
L 18.109375 0 
L 9.078125 0 
z
" id="DejaVuSans-107"/>
     </defs>
     <g style="fill:#ffffff;" transform="translate(246.225 27.298437)scale(0.1 -0.1)">
      <use xlink:href="#DejaVuSans-67"/>
      <use x="69.824219" xlink:href="#DejaVuSans-108"/>
      <use x="97.607422" xlink:href="#DejaVuSans-97"/>
      <use x="158.886719" xlink:href="#DejaVuSans-115"/>
      <use x="210.986328" xlink:href="#DejaVuSans-115"/>
      <use x="263.085938" xlink:href="#DejaVuSans-105"/>
      <use x="290.869141" xlink:href="#DejaVuSans-99"/>
      <use x="345.849609" xlink:href="#DejaVuSans-97"/>
      <use x="407.128906" xlink:href="#DejaVuSans-108"/>
      <use x="434.912109" xlink:href="#DejaVuSans-32"/>
      <use x="466.699219" xlink:href="#DejaVuSans-82"/>
      <use x="536.150391" xlink:href="#DejaVuSans-97"/>
      <use x="597.429688" xlink:href="#DejaVuSans-110"/>
      <use x="660.808594" xlink:href="#DejaVuSans-100"/>
      <use x="724.285156" xlink:href="#DejaVuSans-111"/>
      <use x="785.466797" xlink:href="#DejaVuSans-109"/>
      <use x="882.878906" xlink:href="#DejaVuSans-32"/>
      <use x="914.666016" xlink:href="#DejaVuSans-87"/>
      <use x="1013.449219" xlink:href="#DejaVuSans-97"/>
      <use x="1074.728516" xlink:href="#DejaVuSans-108"/>
      <use x="1102.511719" xlink:href="#DejaVuSans-107"/>
     </g>
    </g>
    <g id="line2d_16">
     <path d="M 218.225 38.476562 
L 238.225 38.476562 
" style="fill:none;stroke:#feffb3;stroke-linecap:square;stroke-opacity:0.85;stroke-width:1.5;"/>
    </g>
    <g id="line2d_17"/>
    <g id="text_13">
     <!-- Quantum Walk -->
     <defs>
      <path d="M 39.40625 66.21875 
Q 28.65625 66.21875 22.328125 58.203125 
Q 16.015625 50.203125 16.015625 36.375 
Q 16.015625 22.609375 22.328125 14.59375 
Q 28.65625 6.59375 39.40625 6.59375 
Q 50.140625 6.59375 56.421875 14.59375 
Q 62.703125 22.609375 62.703125 36.375 
Q 62.703125 50.203125 56.421875 58.203125 
Q 50.140625 66.21875 39.40625 66.21875 
z
M 53.21875 1.3125 
L 66.21875 -12.890625 
L 54.296875 -12.890625 
L 43.5 -1.21875 
Q 41.890625 -1.3125 41.03125 -1.359375 
Q 40.1875 -1.421875 39.40625 -1.421875 
Q 24.03125 -1.421875 14.8125 8.859375 
Q 5.609375 19.140625 5.609375 36.375 
Q 5.609375 53.65625 14.8125 63.9375 
Q 24.03125 74.21875 39.40625 74.21875 
Q 54.734375 74.21875 63.90625 63.9375 
Q 73.09375 53.65625 73.09375 36.375 
Q 73.09375 23.6875 67.984375 14.640625 
Q 62.890625 5.609375 53.21875 1.3125 
z
" id="DejaVuSans-81"/>
      <path d="M 8.5 21.578125 
L 8.5 54.6875 
L 17.484375 54.6875 
L 17.484375 21.921875 
Q 17.484375 14.15625 20.5 10.265625 
Q 23.53125 6.390625 29.59375 6.390625 
Q 36.859375 6.390625 41.078125 11.03125 
Q 45.3125 15.671875 45.3125 23.6875 
L 45.3125 54.6875 
L 54.296875 54.6875 
L 54.296875 0 
L 45.3125 0 
L 45.3125 8.40625 
Q 42.046875 3.421875 37.71875 1 
Q 33.40625 -1.421875 27.6875 -1.421875 
Q 18.265625 -1.421875 13.375 4.4375 
Q 8.5 10.296875 8.5 21.578125 
z
M 31.109375 56 
z
" id="DejaVuSans-117"/>
      <path d="M 18.3125 70.21875 
L 18.3125 54.6875 
L 36.8125 54.6875 
L 36.8125 47.703125 
L 18.3125 47.703125 
L 18.3125 18.015625 
Q 18.3125 11.328125 20.140625 9.421875 
Q 21.96875 7.515625 27.59375 7.515625 
L 36.8125 7.515625 
L 36.8125 0 
L 27.59375 0 
Q 17.1875 0 13.234375 3.875 
Q 9.28125 7.765625 9.28125 18.015625 
L 9.28125 47.703125 
L 2.6875 47.703125 
L 2.6875 54.6875 
L 9.28125 54.6875 
L 9.28125 70.21875 
z
" id="DejaVuSans-116"/>
     </defs>
     <g style="fill:#ffffff;" transform="translate(246.225 41.976562)scale(0.1 -0.1)">
      <use xlink:href="#DejaVuSans-81"/>
      <use x="78.710938" xlink:href="#DejaVuSans-117"/>
      <use x="142.089844" xlink:href="#DejaVuSans-97"/>
      <use x="203.369141" xlink:href="#DejaVuSans-110"/>
      <use x="266.748047" xlink:href="#DejaVuSans-116"/>
      <use x="305.957031" xlink:href="#DejaVuSans-117"/>
      <use x="369.335938" xlink:href="#DejaVuSans-109"/>
      <use x="466.748047" xlink:href="#DejaVuSans-32"/>
      <use x="498.535156" xlink:href="#DejaVuSans-87"/>
      <use x="597.318359" xlink:href="#DejaVuSans-97"/>
      <use x="658.597656" xlink:href="#DejaVuSans-108"/>
      <use x="686.380859" xlink:href="#DejaVuSans-107"/>
     </g>
    </g>
   </g>
  </g>
 </g>
 <defs>
  <clipPath id="p91c0985b40">
   <rect height="217.44" width="334.8" x="36.465625" y="10.7"/>
  </clipPath>
 </defs>
</svg>
