<?xml version="1.0" encoding="utf-8" standalone="no"?>
<!DOCTYPE svg PUBLIC "-//W3C//DTD SVG 1.1//EN"
  "http://www.w3.org/Graphics/SVG/1.1/DTD/svg11.dtd">
<!-- Created with matplotlib (https://matplotlib.org/) -->
<svg height="252.018125pt" version="1.1" viewBox="0 0 383.982812 252.018125" width="383.982812pt" xmlns="http://www.w3.org/2000/svg" xmlns:xlink="http://www.w3.org/1999/xlink">
 <defs>
  <style type="text/css">
*{stroke-linecap:butt;stroke-linejoin:round;}
  </style>
 </defs>
 <g id="figure_1">
  <g id="patch_1">
   <path d="M -0 252.018125 
L 383.982812 252.018125 
L 383.982812 0 
L -0 0 
z
"/>
  </g>
  <g id="axes_1">
   <g id="patch_2">
    <path d="M 38.482813 228.14 
L 373.282813 228.14 
L 373.282813 10.7 
L 38.482813 10.7 
z
"/>
   </g>
   <g id="matplotlib.axis_1">
    <g id="xtick_1">
     <g id="line2d_1">
      <defs>
       <path d="M 0 0 
L 0 3.5 
" id="m1e34f8dbf1" style="stroke:#ffffff;stroke-width:0.8;"/>
      </defs>
      <g>
       <use style="fill:#ffffff;stroke:#ffffff;stroke-width:0.8;" x="53.700994" xlink:href="#m1e34f8dbf1" y="228.14"/>
      </g>
     </g>
     <g id="text_1">
      <!-- 0.0 -->
      <defs>
       <path d="M 31.78125 66.40625 
Q 24.171875 66.40625 20.328125 58.90625 
Q 16.5 51.421875 16.5 36.375 
Q 16.5 21.390625 20.328125 13.890625 
Q 24.171875 6.390625 31.78125 6.390625 
Q 39.453125 6.390625 43.28125 13.890625 
Q 47.125 21.390625 47.125 36.375 
Q 47.125 51.421875 43.28125 58.90625 
Q 39.453125 66.40625 31.78125 66.40625 
z
M 31.78125 74.21875 
Q 44.046875 74.21875 50.515625 64.515625 
Q 56.984375 54.828125 56.984375 36.375 
Q 56.984375 17.96875 50.515625 8.265625 
Q 44.046875 -1.421875 31.78125 -1.421875 
Q 19.53125 -1.421875 13.0625 8.265625 
Q 6.59375 17.96875 6.59375 36.375 
Q 6.59375 54.828125 13.0625 64.515625 
Q 19.53125 74.21875 31.78125 74.21875 
z
" id="DejaVuSans-48"/>
       <path d="M 10.6875 12.40625 
L 21 12.40625 
L 21 0 
L 10.6875 0 
z
" id="DejaVuSans-46"/>
      </defs>
      <g style="fill:#ffffff;" transform="translate(45.749432 242.738437)scale(0.1 -0.1)">
       <use xlink:href="#DejaVuSans-48"/>
       <use x="63.623047" xlink:href="#DejaVuSans-46"/>
       <use x="95.410156" xlink:href="#DejaVuSans-48"/>
      </g>
     </g>
    </g>
    <g id="xtick_2">
     <g id="line2d_2">
      <g>
       <use style="fill:#ffffff;stroke:#ffffff;stroke-width:0.8;" x="92.102061" xlink:href="#m1e34f8dbf1" y="228.14"/>
      </g>
     </g>
     <g id="text_2">
      <!-- 0.5 -->
      <defs>
       <path d="M 10.796875 72.90625 
L 49.515625 72.90625 
L 49.515625 64.59375 
L 19.828125 64.59375 
L 19.828125 46.734375 
Q 21.96875 47.46875 24.109375 47.828125 
Q 26.265625 48.1875 28.421875 48.1875 
Q 40.625 48.1875 47.75 41.5 
Q 54.890625 34.8125 54.890625 23.390625 
Q 54.890625 11.625 47.5625 5.09375 
Q 40.234375 -1.421875 26.90625 -1.421875 
Q 22.3125 -1.421875 17.546875 -0.640625 
Q 12.796875 0.140625 7.71875 1.703125 
L 7.71875 11.625 
Q 12.109375 9.234375 16.796875 8.0625 
Q 21.484375 6.890625 26.703125 6.890625 
Q 35.15625 6.890625 40.078125 11.328125 
Q 45.015625 15.765625 45.015625 23.390625 
Q 45.015625 31 40.078125 35.4375 
Q 35.15625 39.890625 26.703125 39.890625 
Q 22.75 39.890625 18.8125 39.015625 
Q 14.890625 38.140625 10.796875 36.28125 
z
" id="DejaVuSans-53"/>
      </defs>
      <g style="fill:#ffffff;" transform="translate(84.150499 242.738437)scale(0.1 -0.1)">
       <use xlink:href="#DejaVuSans-48"/>
       <use x="63.623047" xlink:href="#DejaVuSans-46"/>
       <use x="95.410156" xlink:href="#DejaVuSans-53"/>
      </g>
     </g>
    </g>
    <g id="xtick_3">
     <g id="line2d_3">
      <g>
       <use style="fill:#ffffff;stroke:#ffffff;stroke-width:0.8;" x="130.503128" xlink:href="#m1e34f8dbf1" y="228.14"/>
      </g>
     </g>
     <g id="text_3">
      <!-- 1.0 -->
      <defs>
       <path d="M 12.40625 8.296875 
L 28.515625 8.296875 
L 28.515625 63.921875 
L 10.984375 60.40625 
L 10.984375 69.390625 
L 28.421875 72.90625 
L 38.28125 72.90625 
L 38.28125 8.296875 
L 54.390625 8.296875 
L 54.390625 0 
L 12.40625 0 
z
" id="DejaVuSans-49"/>
      </defs>
      <g style="fill:#ffffff;" transform="translate(122.551565 242.738437)scale(0.1 -0.1)">
       <use xlink:href="#DejaVuSans-49"/>
       <use x="63.623047" xlink:href="#DejaVuSans-46"/>
       <use x="95.410156" xlink:href="#DejaVuSans-48"/>
      </g>
     </g>
    </g>
    <g id="xtick_4">
     <g id="line2d_4">
      <g>
       <use style="fill:#ffffff;stroke:#ffffff;stroke-width:0.8;" x="168.904195" xlink:href="#m1e34f8dbf1" y="228.14"/>
      </g>
     </g>
     <g id="text_4">
      <!-- 1.5 -->
      <g style="fill:#ffffff;" transform="translate(160.952632 242.738437)scale(0.1 -0.1)">
       <use xlink:href="#DejaVuSans-49"/>
       <use x="63.623047" xlink:href="#DejaVuSans-46"/>
       <use x="95.410156" xlink:href="#DejaVuSans-53"/>
      </g>
     </g>
    </g>
    <g id="xtick_5">
     <g id="line2d_5">
      <g>
       <use style="fill:#ffffff;stroke:#ffffff;stroke-width:0.8;" x="207.305262" xlink:href="#m1e34f8dbf1" y="228.14"/>
      </g>
     </g>
     <g id="text_5">
      <!-- 2.0 -->
      <defs>
       <path d="M 19.1875 8.296875 
L 53.609375 8.296875 
L 53.609375 0 
L 7.328125 0 
L 7.328125 8.296875 
Q 12.9375 14.109375 22.625 23.890625 
Q 32.328125 33.6875 34.8125 36.53125 
Q 39.546875 41.84375 41.421875 45.53125 
Q 43.3125 49.21875 43.3125 52.78125 
Q 43.3125 58.59375 39.234375 62.25 
Q 35.15625 65.921875 28.609375 65.921875 
Q 23.96875 65.921875 18.8125 64.3125 
Q 13.671875 62.703125 7.8125 59.421875 
L 7.8125 69.390625 
Q 13.765625 71.78125 18.9375 73 
Q 24.125 74.21875 28.421875 74.21875 
Q 39.75 74.21875 46.484375 68.546875 
Q 53.21875 62.890625 53.21875 53.421875 
Q 53.21875 48.921875 51.53125 44.890625 
Q 49.859375 40.875 45.40625 35.40625 
Q 44.1875 33.984375 37.640625 27.21875 
Q 31.109375 20.453125 19.1875 8.296875 
z
" id="DejaVuSans-50"/>
      </defs>
      <g style="fill:#ffffff;" transform="translate(199.353699 242.738437)scale(0.1 -0.1)">
       <use xlink:href="#DejaVuSans-50"/>
       <use x="63.623047" xlink:href="#DejaVuSans-46"/>
       <use x="95.410156" xlink:href="#DejaVuSans-48"/>
      </g>
     </g>
    </g>
    <g id="xtick_6">
     <g id="line2d_6">
      <g>
       <use style="fill:#ffffff;stroke:#ffffff;stroke-width:0.8;" x="245.706328" xlink:href="#m1e34f8dbf1" y="228.14"/>
      </g>
     </g>
     <g id="text_6">
      <!-- 2.5 -->
      <g style="fill:#ffffff;" transform="translate(237.754766 242.738437)scale(0.1 -0.1)">
       <use xlink:href="#DejaVuSans-50"/>
       <use x="63.623047" xlink:href="#DejaVuSans-46"/>
       <use x="95.410156" xlink:href="#DejaVuSans-53"/>
      </g>
     </g>
    </g>
    <g id="xtick_7">
     <g id="line2d_7">
      <g>
       <use style="fill:#ffffff;stroke:#ffffff;stroke-width:0.8;" x="284.107395" xlink:href="#m1e34f8dbf1" y="228.14"/>
      </g>
     </g>
     <g id="text_7">
      <!-- 3.0 -->
      <defs>
       <path d="M 40.578125 39.3125 
Q 47.65625 37.796875 51.625 33 
Q 55.609375 28.21875 55.609375 21.1875 
Q 55.609375 10.40625 48.1875 4.484375 
Q 40.765625 -1.421875 27.09375 -1.421875 
Q 22.515625 -1.421875 17.65625 -0.515625 
Q 12.796875 0.390625 7.625 2.203125 
L 7.625 11.71875 
Q 11.71875 9.328125 16.59375 8.109375 
Q 21.484375 6.890625 26.8125 6.890625 
Q 36.078125 6.890625 40.9375 10.546875 
Q 45.796875 14.203125 45.796875 21.1875 
Q 45.796875 27.640625 41.28125 31.265625 
Q 36.765625 34.90625 28.71875 34.90625 
L 20.21875 34.90625 
L 20.21875 43.015625 
L 29.109375 43.015625 
Q 36.375 43.015625 40.234375 45.921875 
Q 44.09375 48.828125 44.09375 54.296875 
Q 44.09375 59.90625 40.109375 62.90625 
Q 36.140625 65.921875 28.71875 65.921875 
Q 24.65625 65.921875 20.015625 65.03125 
Q 15.375 64.15625 9.8125 62.3125 
L 9.8125 71.09375 
Q 15.4375 72.65625 20.34375 73.4375 
Q 25.25 74.21875 29.59375 74.21875 
Q 40.828125 74.21875 47.359375 69.109375 
Q 53.90625 64.015625 53.90625 55.328125 
Q 53.90625 49.265625 50.4375 45.09375 
Q 46.96875 40.921875 40.578125 39.3125 
z
" id="DejaVuSans-51"/>
      </defs>
      <g style="fill:#ffffff;" transform="translate(276.155833 242.738437)scale(0.1 -0.1)">
       <use xlink:href="#DejaVuSans-51"/>
       <use x="63.623047" xlink:href="#DejaVuSans-46"/>
       <use x="95.410156" xlink:href="#DejaVuSans-48"/>
      </g>
     </g>
    </g>
    <g id="xtick_8">
     <g id="line2d_8">
      <g>
       <use style="fill:#ffffff;stroke:#ffffff;stroke-width:0.8;" x="322.508462" xlink:href="#m1e34f8dbf1" y="228.14"/>
      </g>
     </g>
     <g id="text_8">
      <!-- 3.5 -->
      <g style="fill:#ffffff;" transform="translate(314.5569 242.738437)scale(0.1 -0.1)">
       <use xlink:href="#DejaVuSans-51"/>
       <use x="63.623047" xlink:href="#DejaVuSans-46"/>
       <use x="95.410156" xlink:href="#DejaVuSans-53"/>
      </g>
     </g>
    </g>
    <g id="xtick_9">
     <g id="line2d_9">
      <g>
       <use style="fill:#ffffff;stroke:#ffffff;stroke-width:0.8;" x="360.909529" xlink:href="#m1e34f8dbf1" y="228.14"/>
      </g>
     </g>
     <g id="text_9">
      <!-- 4.0 -->
      <defs>
       <path d="M 37.796875 64.3125 
L 12.890625 25.390625 
L 37.796875 25.390625 
z
M 35.203125 72.90625 
L 47.609375 72.90625 
L 47.609375 25.390625 
L 58.015625 25.390625 
L 58.015625 17.1875 
L 47.609375 17.1875 
L 47.609375 0 
L 37.796875 0 
L 37.796875 17.1875 
L 4.890625 17.1875 
L 4.890625 26.703125 
z
" id="DejaVuSans-52"/>
      </defs>
      <g style="fill:#ffffff;" transform="translate(352.957966 242.738437)scale(0.1 -0.1)">
       <use xlink:href="#DejaVuSans-52"/>
       <use x="63.623047" xlink:href="#DejaVuSans-46"/>
       <use x="95.410156" xlink:href="#DejaVuSans-48"/>
      </g>
     </g>
    </g>
   </g>
   <g id="matplotlib.axis_2">
    <g id="ytick_1">
     <g id="line2d_10">
      <defs>
       <path d="M 0 0 
L -3.5 0 
" id="m524842c032" style="stroke:#ffffff;stroke-width:0.8;"/>
      </defs>
      <g>
       <use style="fill:#ffffff;stroke:#ffffff;stroke-width:0.8;" x="38.482813" xlink:href="#m524842c032" y="198.492229"/>
      </g>
     </g>
     <g id="text_10">
      <!-- −0.4 -->
      <defs>
       <path d="M 10.59375 35.5 
L 73.1875 35.5 
L 73.1875 27.203125 
L 10.59375 27.203125 
z
" id="DejaVuSans-8722"/>
      </defs>
      <g style="fill:#ffffff;" transform="translate(7.2 202.291448)scale(0.1 -0.1)">
       <use xlink:href="#DejaVuSans-8722"/>
       <use x="83.789062" xlink:href="#DejaVuSans-48"/>
       <use x="147.412109" xlink:href="#DejaVuSans-46"/>
       <use x="179.199219" xlink:href="#DejaVuSans-52"/>
      </g>
     </g>
    </g>
    <g id="ytick_2">
     <g id="line2d_11">
      <g>
       <use style="fill:#ffffff;stroke:#ffffff;stroke-width:0.8;" x="38.482813" xlink:href="#m524842c032" y="158.956986"/>
      </g>
     </g>
     <g id="text_11">
      <!-- −0.2 -->
      <g style="fill:#ffffff;" transform="translate(7.2 162.756205)scale(0.1 -0.1)">
       <use xlink:href="#DejaVuSans-8722"/>
       <use x="83.789062" xlink:href="#DejaVuSans-48"/>
       <use x="147.412109" xlink:href="#DejaVuSans-46"/>
       <use x="179.199219" xlink:href="#DejaVuSans-50"/>
      </g>
     </g>
    </g>
    <g id="ytick_3">
     <g id="line2d_12">
      <g>
       <use style="fill:#ffffff;stroke:#ffffff;stroke-width:0.8;" x="38.482813" xlink:href="#m524842c032" y="119.421744"/>
      </g>
     </g>
     <g id="text_12">
      <!-- 0.0 -->
      <g style="fill:#ffffff;" transform="translate(15.579688 123.220962)scale(0.1 -0.1)">
       <use xlink:href="#DejaVuSans-48"/>
       <use x="63.623047" xlink:href="#DejaVuSans-46"/>
       <use x="95.410156" xlink:href="#DejaVuSans-48"/>
      </g>
     </g>
    </g>
    <g id="ytick_4">
     <g id="line2d_13">
      <g>
       <use style="fill:#ffffff;stroke:#ffffff;stroke-width:0.8;" x="38.482813" xlink:href="#m524842c032" y="79.886501"/>
      </g>
     </g>
     <g id="text_13">
      <!-- 0.2 -->
      <g style="fill:#ffffff;" transform="translate(15.579688 83.685719)scale(0.1 -0.1)">
       <use xlink:href="#DejaVuSans-48"/>
       <use x="63.623047" xlink:href="#DejaVuSans-46"/>
       <use x="95.410156" xlink:href="#DejaVuSans-50"/>
      </g>
     </g>
    </g>
    <g id="ytick_5">
     <g id="line2d_14">
      <g>
       <use style="fill:#ffffff;stroke:#ffffff;stroke-width:0.8;" x="38.482813" xlink:href="#m524842c032" y="40.351258"/>
      </g>
     </g>
     <g id="text_14">
      <!-- 0.4 -->
      <g style="fill:#ffffff;" transform="translate(15.579688 44.150477)scale(0.1 -0.1)">
       <use xlink:href="#DejaVuSans-48"/>
       <use x="63.623047" xlink:href="#DejaVuSans-46"/>
       <use x="95.410156" xlink:href="#DejaVuSans-52"/>
      </g>
     </g>
    </g>
   </g>
   <g id="line2d_15">
    <path clip-path="url(#pe3577fb2b1)" d="M 53.700994 20.583636 
L 57.368026 21.693477 
L 61.035058 24.998073 
L 64.70209 30.423212 
L 68.369121 37.847056 
L 72.036153 47.102884 
L 75.703185 57.98283 
L 79.370217 70.242555 
L 83.037248 83.606734 
L 86.70428 97.775237 
L 90.371312 112.429871 
L 94.038344 127.241527 
L 97.705375 141.877569 
L 101.372407 156.009303 
L 105.039439 169.319363 
L 108.706471 181.508836 
L 112.373503 192.303973 
L 116.040534 201.462339 
L 119.707566 208.77826 
L 123.374598 214.087434 
L 127.04163 217.270631 
L 130.708661 218.256364 
L 134.375693 217.022494 
L 138.042725 213.596731 
L 141.709757 208.056011 
L 145.376788 200.524766 
L 149.04382 191.17213 
L 152.710852 180.208143 
L 156.377884 167.87903 
L 160.044915 154.461676 
L 163.711947 140.257405 
L 167.378979 125.585211 
L 171.046011 110.7746 
L 174.713043 96.158185 
L 178.380074 82.064216 
L 182.047106 68.809213 
L 185.714138 56.690853 
L 189.38117 45.981287 
L 193.048201 36.921028 
L 196.715233 29.713548 
L 200.382265 24.520712 
L 204.049297 21.459139 
L 207.716328 20.597584 
L 211.38336 21.955397 
L 215.050392 25.502084 
L 218.717424 31.157994 
L 222.384455 38.796108 
L 226.051487 48.244892 
L 229.718519 59.292148 
L 233.385551 71.689778 
L 237.052582 85.15936 
L 240.719614 99.398398 
L 244.386646 114.087115 
L 248.053678 128.895636 
L 251.72071 143.491395 
L 255.387741 157.546603 
L 259.054773 170.745614 
L 262.721805 182.792006 
L 266.388837 193.415245 
L 270.055868 202.376758 
L 273.7229 209.475288 
L 277.389932 214.551419 
L 281.056964 217.491153 
L 284.723995 218.228469 
L 288.391027 216.746809 
L 292.058059 213.079448 
L 295.725091 207.308747 
L 299.392122 199.564302 
L 303.059154 190.020037 
L 306.726186 178.890293 
L 310.393218 166.42502 
L 314.06025 152.90416 
L 317.727281 138.63136 
L 321.394313 123.927156 
L 325.061345 109.12177 
L 328.728377 94.547699 
L 332.395408 80.532242 
L 336.06244 67.390155 
L 339.729472 55.416581 
L 343.396504 44.880418 
L 347.063535 36.018284 
L 350.730567 29.029204 
L 354.397599 24.070136 
L 358.064631 21.25245 
" style="fill:none;stroke:#8dd3c7;stroke-linecap:square;stroke-width:1.5;"/>
   </g>
   <g id="line2d_16">
    <path clip-path="url(#pe3577fb2b1)" d="M 53.700994 119.421744 
L 57.368026 134.191892 
L 61.035058 148.630336 
L 64.70209 162.412821 
L 68.369121 175.229824 
L 72.036153 186.793503 
L 75.703185 196.844165 
L 79.370217 205.156094 
L 83.037248 211.542623 
L 86.70428 215.860326 
L 90.371312 218.012236 
L 94.038344 217.950026 
L 97.705375 215.675093 
L 101.372407 211.238528 
L 105.039439 204.739965 
L 108.706471 196.325348 
L 112.373503 186.183649 
L 116.040534 174.542629 
L 119.707566 161.663719 
L 123.374598 147.836149 
L 127.04163 133.370455 
L 130.708661 118.591506 
L 134.375693 103.831201 
L 138.042725 89.421025 
L 141.709757 75.684597 
L 145.376788 62.930407 
L 149.04382 51.444884 
L 152.710852 41.485968 
L 156.377884 33.277314 
L 160.044915 27.003268 
L 163.711947 22.804733 
L 167.378979 20.775998 
L 171.046011 20.962623 
L 174.713043 23.360418 
L 178.380074 27.915533 
L 182.047106 34.525671 
L 185.714138 43.042382 
L 189.38117 53.274402 
L 193.048201 64.991942 
L 196.715233 77.931851 
L 200.382265 91.80353 
L 204.049297 106.295452 
L 207.716328 121.082161 
L 211.38336 135.83158 
L 215.050392 150.212472 
L 218.717424 163.901873 
L 222.384455 176.592351 
L 226.051487 187.998906 
L 229.718519 197.865374 
L 233.385551 205.970174 
L 237.052582 212.131293 
L 240.719614 216.210364 
L 244.386646 218.115782 
L 248.053678 217.804754 
L 251.72071 215.284267 
L 255.387741 210.610923 
L 259.054773 203.889677 
L 262.721805 195.271472 
L 266.388837 184.949853 
L 270.055868 173.156621 
L 273.7229 160.156625 
L 277.389932 146.241816 
L 281.056964 131.724688 
L 284.723995 116.931264 
L 288.391027 102.193771 
L 292.058059 87.843179 
L 295.725091 74.20177 
L 299.392122 61.5759 
L 303.059154 50.249116 
L 306.726186 40.475794 
L 310.393218 32.475419 
L 314.06025 26.427662 
L 317.727281 22.468342 
L 321.394313 20.686377 
L 325.061345 21.121784 
L 328.728377 23.764787 
L 332.395408 28.556029 
L 336.06244 35.387909 
L 339.729472 44.107 
L 343.396504 54.51749 
L 347.063535 66.385582 
L 350.730567 79.444747 
L 354.397599 93.401705 
L 358.064631 107.943014 
" style="fill:none;stroke:#feffb3;stroke-linecap:square;stroke-width:1.5;"/>
   </g>
   <g id="patch_3">
    <path d="M 38.482813 228.14 
L 38.482813 10.7 
" style="fill:none;stroke:#ffffff;stroke-linecap:square;stroke-linejoin:miter;stroke-width:0.8;"/>
   </g>
   <g id="patch_4">
    <path d="M 373.282813 228.14 
L 373.282813 10.7 
" style="fill:none;stroke:#ffffff;stroke-linecap:square;stroke-linejoin:miter;stroke-width:0.8;"/>
   </g>
   <g id="patch_5">
    <path d="M 38.482813 228.14 
L 373.282812 228.14 
" style="fill:none;stroke:#ffffff;stroke-linecap:square;stroke-linejoin:miter;stroke-width:0.8;"/>
   </g>
   <g id="patch_6">
    <path d="M 38.482813 10.7 
L 373.282812 10.7 
" style="fill:none;stroke:#ffffff;stroke-linecap:square;stroke-linejoin:miter;stroke-width:0.8;"/>
   </g>
  </g>
 </g>
 <defs>
  <clipPath id="pe3577fb2b1">
   <rect height="217.44" width="334.8" x="38.482813" y="10.7"/>
  </clipPath>
 </defs>
</svg>
